HIERARCHY
ROOT Hips
{
	OFFSET 0.00 0.00 0.00
	CHANNELS 6 Xposition Yposition Zposition Xrotation Yrotation Zrotation
	JOINT RightUpLeg
	{
		OFFSET -3.69398 0.00000 0.00000
		CHANNELS 3 Xrotation Yrotation Zrotation
		JOINT RightLeg
		{
			OFFSET 0.00000 -15.79567 0.00000
			CHANNELS 3 Xrotation Yrotation Zrotation
			JOINT RightFoot
			{
				OFFSET 0.00000 -14.76699 0.00000
				CHANNELS 3 Xrotation Yrotation Zrotation
				JOINT RightToeBase
				{
					OFFSET 0.00000 -1.28446 4.79369
					CHANNELS 3 Xrotation Yrotation Zrotation
					End Site
					{
						OFFSET 0.00000 0.00000 2.95275
					}
				}
			}
		}
	}
	JOINT LeftUpLeg
	{
		OFFSET 3.69398 0.00000 0.00000
		CHANNELS 3 Xrotation Yrotation Zrotation
		JOINT LeftLeg
		{
			OFFSET 0.00000 -15.79567 0.00000
			CHANNELS 3 Xrotation Yrotation Zrotation
			JOINT LeftFoot
			{
				OFFSET 0.00000 -14.76699 0.00000
				CHANNELS 3 Xrotation Yrotation Zrotation
				JOINT LeftToeBase
				{
					OFFSET 0.00000 -1.28446 4.79369
					CHANNELS 3 Xrotation Yrotation Zrotation
					End Site
					{
						OFFSET 0.00000 0.00000 2.95275
					}
				}
			}
		}
	}
	JOINT Spine
	{
		OFFSET 0.00000 2.39296 0.00000
		CHANNELS 3 Xrotation Yrotation Zrotation
		JOINT RightShoulder
		{
			OFFSET 0.00000 13.20741 0.00000
			CHANNELS 3 Xrotation Yrotation Zrotation
			JOINT RightArm
			{
				OFFSET -8.14047 0.00000 0.00000
				CHANNELS 3 Xrotation Yrotation Zrotation
				JOINT RightForeArm
				{
					OFFSET -10.64984 0.00000 0.00000
					CHANNELS 3 Yrotation Zrotation Xrotation
					JOINT RightHand
					{
						OFFSET -8.30462 0.00000 0.00000
						CHANNELS 3 Xrotation Yrotation Zrotation
						End Site
						{
							OFFSET -3.93700 0.00000 0.00000
						}
						JOINT RightHandThumb1
						{
							OFFSET 0.00000 0.00000 0.00000
							CHANNELS 3 Xrotation Zrotation Yrotation
							End Site
							{
								OFFSET 0.00000 0.00000 3.93700
							}
						}
					}
				}
			}
		}
		JOINT LeftShoulder
		{
			OFFSET 0.00000 13.20741 0.00000
			CHANNELS 3 Xrotation Yrotation Zrotation
			JOINT LeftArm
			{
				OFFSET 8.14047 0.00000 0.00000
				CHANNELS 3 Xrotation Yrotation Zrotation
				JOINT LeftForeArm
				{
					OFFSET 10.64984 0.00000 0.00000
					CHANNELS 3 Yrotation Zrotation Xrotation
					JOINT LeftHand
					{
						OFFSET 8.30462 0.00000 0.00000
						CHANNELS 3 Xrotation Yrotation Zrotation
						End Site
						{
							OFFSET 3.93700 0.00000 0.00000
						}
						JOINT LeftHandThumb1
						{
							OFFSET 0.00000 0.00000 0.00000
							CHANNELS 3 Xrotation Zrotation Yrotation
							End Site
							{
								OFFSET 0.00000 0.00000 3.93700
							}
						}
					}
				}
			}
		}
		JOINT Head
		{
			OFFSET 0.00000 19.25010 0.00000
			CHANNELS 3 Xrotation Yrotation Zrotation
			End Site
			{
				OFFSET 0.00000 4.52755 0.00000
			}
		}
	}
}
MOTION
Frames: 14
Frame Time: 0.008333
 -7.2932 33.8827 -0.0900 45.2586 -42.2100 -106.2373 6.6405 -8.8181 -23.0664 60.1007 -0.0000 0.0000 35.3684 -17.8785 27.4866 43.4710 -0.0000 0.0000 -133.7337 -10.7929 35.5821 -9.2027 -0.0000 -0.0000 -0.8241 0.0144 -0.9114 5.1399 -0.0000 -0.0000 -73.0201 -24.1186 5.1155 -23.5179 -27.2602 -39.6762 34.6208 13.0516 39.0378 3.8063 -0.0000 21.2754 -3.1246 8.1262 21.1160 32.8623 0.0000 -24.3270 -25.4789 2.7464 53.3866 -43.9919 -35.6594 -16.7780 -20.3146 0.0000 30.1108 -9.5256 26.1758 20.8265 33.1476 -0.0000 26.2537 -44.5773 -6.6878 44.4931
 -7.3301 33.8762 -0.0750 45.1825 -42.2487 -106.4146 6.6373 -8.8290 -23.1043 59.9761 -0.0000 -0.0000 35.2250 -17.8905 27.0484 43.3406 0.0000 0.0000 -133.8931 -11.0186 35.5096 -9.0673 0.0000 0.0000 -0.9628 0.0053 -0.3774 5.4774 -0.0000 0.0000 -73.0071 -24.1108 5.2205 -23.6330 -27.2076 -39.7323 34.6622 12.9119 38.9928 4.0004 -0.0000 21.4886 -3.1004 8.0015 21.2621 32.8623 0.0000 -24.3270 -25.5367 2.6903 53.4371 -43.8709 -35.5234 -16.6158 -20.0683 0.0000 30.0295 -9.2461 26.1262 20.2886 33.1476 -0.0000 26.2537 -44.7348 -6.6849 44.5805
 -7.3682 33.8675 -0.0568 45.1264 -42.2223 -106.5363 6.7501 -8.7877 -23.1513 59.8466 -0.0000 0.0000 35.1763 -18.0936 27.2367 43.2936 -0.0000 -0.0000 -133.9778 -11.2067 35.4845 -8.9613 0.0000 0.0000 -0.9376 0.0321 -0.2871 5.2525 -0.0000 0.0000 -72.9544 -24.0599 5.3028 -23.5993 -27.3434 -39.7401 34.5342 12.9435 38.8816 4.0921 -0.0000 21.5160 -3.1067 8.0398 21.2099 32.8623 0.0000 -24.3270 -25.5226 2.7200 53.4253 -43.7799 -35.5409 -16.3549 -19.6793 0.0000 29.9165 -9.0040 26.0273 19.8553 33.1476 -0.0000 26.2537 -44.8382 -6.7189 44.6810
 -7.4058 33.8593 -0.0392 45.1230 -42.1980 -106.5887 6.9024 -8.7746 -23.2130 59.6726 0.0000 0.0000 35.1066 -18.0609 26.9302 43.4753 0.0000 -0.0000 -134.0218 -11.3335 35.4607 -8.9131 0.0000 0.0000 -0.9097 0.0764 -0.1180 5.1266 -0.0000 0.0000 -72.9122 -24.0150 5.3485 -23.6459 -27.3248 -39.7944 34.5023 12.7917 38.8318 4.3094 -0.0000 21.7610 -3.1086 7.9541 21.4283 32.8623 0.0000 -24.3270 -25.5542 2.7728 53.4138 -43.6008 -35.5902 -16.0992 -19.3548 0.0000 29.6842 -8.8083 25.9870 19.4761 33.1476 -0.0000 26.2537 -44.9309 -6.7011 44.7696
 -7.4446 33.8533 -0.0181 45.0447 -42.1555 -106.6761 7.0476 -8.6734 -23.2551 59.5574 0.0000 -0.0000 35.1311 -18.0656 26.8511 43.4590 -0.0000 -0.0000 -133.9897 -11.5417 35.5106 -8.8884 -0.0000 -0.0000 -0.9209 0.1982 0.2511 5.1787 -0.0000 0.0000 -72.8516 -23.9310 5.4376 -23.6376 -27.3277 -39.8418 34.4902 12.7303 38.7897 4.4541 -0.0000 21.8209 -3.1224 7.9747 21.4645 32.8623 0.0000 -24.3270 -25.6557 2.7141 53.4389 -43.3360 -35.6082 -15.8971 -19.0095 0.0000 29.5218 -8.6976 25.9607 19.2626 33.1476 -0.0000 26.2537 -44.9937 -6.6803 44.8800
 -7.4823 33.8474 0.0039 44.9096 -42.0900 -106.7660 7.1995 -8.4804 -23.3143 59.4696 0.0000 -0.0000 35.1749 -17.9642 26.7906 43.4501 0.0000 -0.0000 -133.9387 -11.7147 35.6301 -8.9420 0.0000 0.0000 -0.7851 0.2449 0.3312 4.8618 -0.0000 -0.0000 -72.7641 -23.8577 5.5770 -23.6434 -27.2823 -39.9082 34.5732 12.8215 38.7557 4.4774 -0.0000 21.9090 -3.0814 7.8596 21.4882 32.8623 0.0000 -24.3270 -25.6994 2.7517 53.4500 -43.1182 -35.6174 -15.6488 -18.6816 0.0000 29.2894 -8.6246 25.8522 19.1796 33.1476 -0.0000 26.2537 -45.1018 -6.5543 45.0013
 -7.5168 33.8388 0.0267 44.8463 -41.9770 -106.7306 7.4171 -8.3076 -23.4196 59.3917 0.0000 -0.0000 35.2134 -17.8408 26.8411 43.5722 0.0000 0.0000 -133.7597 -11.7801 35.7776 -9.0761 -0.0000 0.0000 -0.7623 0.2779 0.6962 4.8715 0.0000 0.0000 -72.6762 -23.7431 5.6436 -23.5423 -27.1531 -39.9498 34.7355 12.9041 38.8101 4.4582 -0.0000 21.7102 -3.0942 7.8565 21.5771 32.8623 0.0000 -24.3270 -25.6885 2.8979 53.4411 -43.1410 -35.6547 -15.5370 -18.4233 0.0000 29.1265 -8.4321 25.7752 18.8245 33.1476 -0.0000 26.2537 -45.0742 -6.5588 45.1440
 -7.5483 33.8329 0.0538 44.7489 -41.9041 -106.6971 7.5571 -8.1287 -23.5082 59.3571 -0.0000 -0.0000 35.2195 -17.7584 26.7863 43.6229 0.0000 0.0000 -133.5563 -11.8770 35.9874 -9.2200 0.0000 0.0000 -0.6628 0.5813 0.9077 4.5127 -0.0000 -0.0000 -72.6499 -23.5829 5.6983 -23.3884 -27.1640 -39.9517 34.7766 13.0466 38.8120 4.3757 -0.0000 21.6669 -3.0781 7.8138 21.5803 32.8623 0.0000 -24.3270 -25.4949 3.2048 53.3342 -43.2148 -35.8065 -15.1726 -18.0923 0.0000 28.7816 -8.1583 25.5467 18.3882 33.1476 -0.0000 26.2537 -45.0428 -6.5294 45.2766
 -7.5762 33.8265 0.0789 44.6465 -41.8241 -106.6422 7.6708 -7.9238 -23.6002 59.3407 0.0000 0.0000 35.2824 -17.5990 26.5840 43.5591 -0.0000 0.0000 -133.3287 -11.9492 36.2116 -9.4083 0.0000 0.0000 -0.6080 0.7806 0.9782 4.3738 0.0000 0.0000 -72.6007 -23.4267 5.7745 -23.3006 -27.1583 -39.9601 34.9621 13.3708 38.7688 4.1099 -0.0000 21.4076 -3.1308 7.9545 21.5662 32.8623 0.0000 -24.3270 -25.5422 3.3171 53.3454 -43.2994 -35.7854 -15.1710 -17.8974 0.0000 28.6674 -8.0379 25.4394 18.1982 33.1476 -0.0000 26.2537 -45.1400 -6.3902 45.4672
 -7.5995 33.8196 0.1022 44.5845 -41.7249 -106.5114 7.7659 -7.7677 -23.7307 59.3625 -0.0000 0.0000 35.2908 -17.5468 26.5373 43.6459 0.0000 -0.0000 -133.0022 -12.0094 36.4475 -9.5633 -0.0000 -0.0000 -0.8252 1.2423 1.3840 4.6990 -0.0000 -0.0000 -72.5524 -23.2170 5.8015 -23.1768 -27.2419 -39.9198 35.0910 13.7338 38.7024 3.7687 -0.0000 21.1395 -3.2158 8.0834 21.7800 32.8623 0.0000 -24.3270 -25.4696 3.6890 53.3040 -43.7560 -35.9124 -15.2468 -17.6188 0.0000 28.4330 -7.9710 25.2737 18.1579 33.1476 -0.0000 26.2537 -45.2611 -6.2685 45.6744
 -7.6177 33.8150 0.1269 44.5256 -41.6539 -106.3987 7.7859 -7.6281 -23.8051 59.4084 0.0000 -0.0000 35.2871 -17.5545 26.4495 43.7789 0.0000 -0.0000 -132.8171 -11.9419 36.6489 -9.7499 -0.0000 -0.0000 -0.8192 1.4870 1.4668 4.3170 0.0000 0.0000 -72.5383 -22.9965 5.8331 -23.0798 -27.1866 -39.8433 35.2159 13.6624 38.7482 3.6137 -0.0000 21.2001 -3.2116 8.1160 21.6758 32.8623 0.0000 -24.3270 -25.4319 3.9315 53.2911 -44.2080 -35.8434 -15.4253 -17.5728 0.0000 28.4714 -7.8951 25.2405 18.0149 33.1476 -0.0000 26.2537 -45.3959 -6.1818 45.8509
 -7.6327 33.8115 0.1464 44.5209 -41.6260 -106.2459 7.7110 -7.5764 -23.9006 59.5073 -0.0000 -0.0000 35.2664 -17.4885 26.3773 43.8452 0.0000 -0.0000 -132.6045 -11.9146 36.8084 -9.8490 -0.0000 -0.0000 -1.1060 1.8937 1.9907 4.7292 0.0000 -0.0000 -72.5447 -22.8184 5.8440 -23.0204 -27.0612 -39.7411 35.3671 13.4621 38.8411 3.5214 -0.0000 21.2720 -3.2130 8.1606 21.5774 32.8623 0.0000 -24.3270 -25.3771 4.2378 53.2775 -44.5308 -35.7799 -15.4728 -17.5284 0.0000 28.3280 -7.9152 25.2159 18.0736 33.1476 -0.0000 26.2537 -45.6450 -5.9832 46.0545
 -7.6473 33.8115 0.1687 44.5775 -41.6054 -106.0594 7.5843 -7.6263 -23.9842 59.6478 -0.0000 0.0000 35.2455 -17.4331 26.1768 43.6952 -0.0000 0.0000 -132.5288 -11.7619 36.9233 -9.9013 0.0000 0.0000 -1.0992 2.1696 1.5494 4.2826 0.0000 0.0000 -72.5257 -22.6176 5.8533 -23.0337 -27.2003 -39.7854 35.4135 13.6883 38.9229 3.1609 -0.0000 21.1928 -3.2274 8.2862 21.3684 32.8623 0.0000 -24.3270 -25.5491 3.8607 53.5585 -44.6073 -34.7311 -15.9137 -18.2954 0.0000 28.8550 -8.1076 25.7439 18.1583 33.1476 -0.0000 26.2537 -45.9408 -5.8837 46.0904
 -7.6559 33.8153 0.1858 44.7176 -41.5849 -105.8413 7.4083 -7.7597 -24.0465 59.8161 0.0000 0.0000 35.2110 -17.3678 25.9775 43.6597 -0.0000 0.0000 -132.4109 -11.6750 36.9690 -9.8265 -0.0000 -0.0000 -1.3203 2.5031 1.3616 4.4232 0.0000 -0.0000 -72.5492 -22.4119 5.7883 -22.9235 -27.3487 -39.7517 35.3870 13.8059 39.0942 2.7335 -0.0000 21.0409 -3.2256 8.3915 21.1151 32.8623 0.0000 -24.3270 -25.5696 3.8835 53.6140 -44.9785 -34.2651 -16.2106 -18.6135 0.0000 29.1506 -8.0608 25.7457 18.0579 33.1476 -0.0000 26.2537 -46.2261 -5.7721 46.1899
